<svg width="56" height="42" viewBox="0 0 56 42" fill="none" xmlns="http://www.w3.org/2000/svg">
<path d="M42.386 16.0733H39.3197C38.4092 12.5469 36.5278 9.34672 33.8894 6.83621C31.251 4.32571 27.9613 2.6056 24.3941 1.87134C20.8269 1.13708 17.1253 1.41812 13.7099 2.68251C10.2944 3.9469 7.30212 6.14394 5.07296 9.024C2.84379 11.9041 1.46716 15.3516 1.09948 18.975C0.731801 22.5984 1.38782 26.2522 2.993 29.5213C4.59818 32.7905 7.08815 35.5438 10.18 37.4686C13.2718 39.3933 16.8415 40.4122 20.4835 40.4094H42.386C45.6132 40.4094 48.7082 39.1274 50.9902 36.8455C53.2721 34.5635 54.5541 31.4685 54.5541 28.2414C54.5541 25.0142 53.2721 21.9192 50.9902 19.6372C48.7082 17.3553 45.6132 16.0733 42.386 16.0733Z" stroke="black" stroke-width="2" stroke-linecap="round" stroke-linejoin="round"/>
</svg>
