<svg width="18" height="19" viewBox="0 0 18 19" fill="none" xmlns="http://www.w3.org/2000/svg">
<path d="M9.95797 0.78418C11.5527 0.787361 11.8967 0.800866 12.7133 0.838266C13.6719 0.882171 14.3268 1.03218 14.8976 1.25536C15.4903 1.48586 15.9915 1.7932 16.4928 2.29444C16.9904 2.79203 17.2977 3.29694 17.5282 3.88599C17.7477 4.45676 17.9014 5.11167 17.9453 6.07026C17.986 6.95784 17.9984 7.28708 18 9.27114V10.2893C17.9984 12.2734 17.986 12.6026 17.9453 13.4902C17.9014 14.4488 17.7514 15.1037 17.5282 15.6744C17.2977 16.2672 16.9904 16.7684 16.4891 17.2696C15.9879 17.7709 15.4866 18.0782 14.8939 18.3087C14.3232 18.5283 13.6682 18.6819 12.7097 18.7258C11.7511 18.7697 11.4437 18.7807 8.9997 18.7807L8.73679 18.7807C6.532 18.7799 6.21282 18.7681 5.28974 18.7258C4.33115 18.6819 3.67623 18.5319 3.10547 18.3087C2.51276 18.0782 2.01151 17.7709 1.51026 17.2696C1.00902 16.7684 0.701683 16.2672 0.471183 15.6744C0.251658 15.1037 0.0979879 14.4488 0.054083 13.4902C0.0166826 12.6736 0.00318084 12.3296 0 10.7348V8.8256C0.00318084 7.23083 0.0166826 6.88683 0.054083 6.07026C0.0979879 5.11167 0.248 4.45676 0.471183 3.88599C0.701683 3.29694 1.00902 2.79203 1.51026 2.29444C2.01151 1.7932 2.51276 1.48586 3.10547 1.25536C3.67623 1.03218 4.33115 0.878512 5.2934 0.838266C6.10997 0.800866 6.45396 0.787361 8.04874 0.78418H9.95797ZM9.25821 2.40424H8.74119C6.57386 2.4048 6.27543 2.41315 5.36291 2.45543C4.48482 2.49567 4.00918 2.64202 3.69087 2.76642C3.27011 2.93106 2.9701 3.12498 2.65545 3.43963C2.3408 3.75428 2.14688 4.0543 1.98224 4.47505C1.85784 4.79336 1.71149 5.269 1.67125 6.14709C1.631 7.09471 1.62003 7.38009 1.62003 9.78388C1.62003 12.1877 1.62734 12.473 1.67125 13.4207C1.71149 14.2988 1.85784 14.7744 1.98224 15.0927C2.14688 15.5135 2.3408 15.8135 2.65545 16.1281C2.9701 16.4428 3.27011 16.6367 3.69087 16.8013C4.00918 16.9257 4.48482 17.0721 5.36291 17.1123C6.31053 17.1526 6.59591 17.1635 8.9997 17.1635L9.25821 17.1635C11.4255 17.163 11.724 17.1546 12.6365 17.1123C13.5146 17.0721 13.9902 16.9257 14.3085 16.8013C14.7293 16.6367 15.0293 16.4428 15.3439 16.1281C15.6586 15.8135 15.8525 15.5135 16.0172 15.0927C16.1415 14.7744 16.2879 14.2988 16.3281 13.4207C16.3684 12.473 16.3794 12.1877 16.3794 9.78388L16.3793 9.52536C16.3788 7.35804 16.3704 7.05961 16.3281 6.14709C16.2879 5.269 16.1415 4.79336 16.0172 4.47505C15.8525 4.0543 15.6586 3.75428 15.3439 3.43963C15.0293 3.12498 14.7293 2.93106 14.3085 2.76642C13.9902 2.64202 13.5146 2.49567 12.6365 2.45543C11.6889 2.41152 11.4035 2.40421 8.9997 2.40421L9.25821 2.40424ZM8.9997 5.16289C11.5535 5.16289 13.6207 7.23374 13.6207 9.78388C13.6207 12.334 11.5498 14.4049 8.9997 14.4049C6.44956 14.4049 4.37871 12.3377 4.37871 9.78388C4.37871 7.23008 6.4459 5.16289 8.9997 5.16289ZM8.9997 6.78371C7.34229 6.78371 5.99953 8.12647 5.99953 9.78388C5.99953 11.4413 7.34229 12.784 8.9997 12.784C10.6571 12.784 11.9999 11.4413 11.9999 9.78388C11.9999 8.12647 10.6571 6.78371 8.9997 6.78371ZM13.8073 3.90063C14.4034 3.90063 14.8866 4.38386 14.8866 4.97996C14.8866 5.57605 14.4034 6.05928 13.8073 6.05928C13.2112 6.05928 12.7279 5.57605 12.7279 4.97996C12.7279 4.38386 13.2112 3.90063 13.8073 3.90063Z" fill="black"/>
</svg>
