<svg width="20" height="20" viewBox="0 0 20 20" fill="none" xmlns="http://www.w3.org/2000/svg">
<path d="M11.0644 0C12.8364 0.00353426 13.2186 0.0185401 14.1259 0.060096C15.191 0.108879 15.9187 0.275555 16.5529 0.523536C17.2114 0.779648 17.7684 1.12113 18.3253 1.67807C18.8782 2.23095 19.2197 2.79195 19.4758 3.44646C19.7197 4.08064 19.8904 4.80832 19.9392 5.87342C19.9844 6.85962 19.9982 7.22544 20 9.42995V10.5612C19.9982 12.7658 19.9844 13.1316 19.9392 14.1178C19.8904 15.1829 19.7238 15.9106 19.4758 16.5447C19.2197 17.2033 18.8782 17.7603 18.3213 18.3172C17.7643 18.8741 17.2074 19.2156 16.5488 19.4717C15.9146 19.7156 15.1869 19.8864 14.1218 19.9352C13.0567 19.9839 12.7153 19.9961 9.99966 19.9961L9.70754 19.9961C7.25778 19.9952 6.90313 19.9821 5.87748 19.9352C4.81238 19.8864 4.0847 19.7197 3.45052 19.4717C2.79195 19.2156 2.23501 18.8741 1.67807 18.3172C1.12113 17.7603 0.779648 17.2033 0.523536 16.5447C0.27962 15.9106 0.108875 15.1829 0.0600922 14.1178C0.0185362 13.2105 0.00353426 12.8283 0 11.0563V8.93491C0.00353426 7.16294 0.0185362 6.78073 0.0600922 5.87342C0.108875 4.80832 0.275555 4.08064 0.523536 3.44646C0.779648 2.79195 1.12113 2.23095 1.67807 1.67807C2.23501 1.12113 2.79195 0.779648 3.45052 0.523536C4.0847 0.275555 4.81239 0.104814 5.88155 0.060096C6.78886 0.0185401 7.17107 0.00353426 8.94304 0H11.0644ZM10.2869 1.80006H9.71243C7.30429 1.80069 6.9727 1.80997 5.95879 1.85694C4.98313 1.90166 4.45464 2.06427 4.10096 2.20249C3.63346 2.38543 3.30011 2.60089 2.9505 2.9505C2.60088 3.30011 2.38542 3.63346 2.20249 4.10097C2.06427 4.45465 1.90166 4.98313 1.85694 5.95879C1.81222 7.0117 1.80003 7.32879 1.80003 9.99966C1.80003 12.6705 1.80816 12.9876 1.85694 14.0405C1.90166 15.0162 2.06427 15.5447 2.20249 15.8984C2.38542 16.3659 2.60088 16.6992 2.9505 17.0488C3.30011 17.3984 3.63346 17.6139 4.10096 17.7968C4.45464 17.9351 4.98313 18.0977 5.95879 18.1424C7.01169 18.1871 7.32879 18.1993 9.99966 18.1993L10.2869 18.1993C12.695 18.1986 13.0266 18.1894 14.0405 18.1424C15.0162 18.0977 15.5447 17.9351 15.8984 17.7968C16.3659 17.6139 16.6992 17.3984 17.0488 17.0488C17.3984 16.6992 17.6139 16.3659 17.7968 15.8984C17.9351 15.5447 18.0977 15.0162 18.1424 14.0405C18.1871 12.9876 18.1993 12.6705 18.1993 9.99966L18.1993 9.71243C18.1986 7.30429 18.1894 6.9727 18.1424 5.95879C18.0977 4.98313 17.9351 4.45465 17.7968 4.10097C17.6139 3.63346 17.3984 3.30011 17.0488 2.9505C16.6992 2.60089 16.3659 2.38543 15.8984 2.20249C15.5447 2.06427 15.0162 1.90166 14.0405 1.85694C12.9876 1.80816 12.6705 1.80003 9.99966 1.80003L10.2869 1.80006ZM9.99966 4.86524C12.8372 4.86524 15.1341 7.16618 15.1341 9.99966C15.1341 12.8332 12.8332 15.1341 9.99966 15.1341C7.16618 15.1341 4.86524 12.8372 4.86524 9.99966C4.86524 7.16211 7.16211 4.86524 9.99966 4.86524ZM9.99966 6.66615C8.1581 6.66615 6.66614 8.1581 6.66614 9.99966C6.66614 11.8412 8.1581 13.3332 9.99966 13.3332C11.8412 13.3332 13.3332 11.8412 13.3332 9.99966C13.3332 8.1581 11.8412 6.66615 9.99966 6.66615ZM15.3414 3.46272C16.0037 3.46272 16.5407 3.99965 16.5407 4.66197C16.5407 5.3243 16.0037 5.86123 15.3414 5.86123C14.6791 5.86123 14.1422 5.3243 14.1422 4.66197C14.1422 3.99965 14.6791 3.46272 15.3414 3.46272Z" fill="#EDEBE9"/>
</svg>
