<svg width="10" height="10" viewBox="0 0 10 10" fill="none" xmlns="http://www.w3.org/2000/svg">
<path d="M5.46424 0.124756C6.33935 0.126501 6.5281 0.133912 6.97618 0.154435C7.50219 0.178527 7.86156 0.260841 8.17476 0.383308C8.5 0.509791 8.77505 0.678434 9.0501 0.953484C9.32314 1.22653 9.49178 1.50358 9.61827 1.82682C9.73873 2.14001 9.82305 2.49938 9.84714 3.02539C9.86944 3.51243 9.87626 3.69309 9.87715 4.78181V5.34051C9.87626 6.42922 9.86944 6.60988 9.84714 7.09693C9.82305 7.62293 9.74073 7.9823 9.61827 8.2955C9.49178 8.62074 9.32314 8.89579 9.04809 9.17084C8.77304 9.44589 8.49799 9.61453 8.17275 9.74101C7.85956 9.86147 7.50018 9.9458 6.97417 9.96989C6.44817 9.99398 6.27953 10 4.93841 10L4.79414 9.99998C3.58431 9.99953 3.40916 9.99309 2.90264 9.96989C2.37663 9.9458 2.01726 9.86348 1.70407 9.74101C1.37883 9.61453 1.10378 9.44589 0.828728 9.17084C0.553678 8.89579 0.385035 8.62074 0.258552 8.2955C0.138093 7.9823 0.0537689 7.62293 0.029677 7.09693C0.00915427 6.64885 0.00174542 6.46009 0 5.58498V4.53733C0.00174542 3.66223 0.00915427 3.47347 0.029677 3.02539C0.0537689 2.49938 0.136085 2.14001 0.258552 1.82682C0.385035 1.50358 0.553678 1.22653 0.828728 0.953484C1.10378 0.678434 1.37883 0.509791 1.70407 0.383308C2.01726 0.260841 2.37663 0.176519 2.90465 0.154435C3.35273 0.133912 3.54149 0.126501 4.41659 0.124756H5.46424ZM5.08026 1.01373H4.79656C3.60728 1.01404 3.44352 1.01862 2.94279 1.04182C2.46096 1.06391 2.19996 1.14421 2.02529 1.21247C1.79441 1.30282 1.62978 1.40922 1.45712 1.58188C1.28447 1.75454 1.17806 1.91917 1.08771 2.15005C1.01945 2.32472 0.939148 2.58571 0.917064 3.06755C0.89498 3.58753 0.888958 3.74413 0.888958 5.06317C0.888958 6.3822 0.892972 6.5388 0.917064 7.05878C0.939148 7.54062 1.01945 7.80161 1.08771 7.97628C1.17806 8.20716 1.28447 8.37179 1.45712 8.54445C1.62978 8.71711 1.79441 8.82351 2.02529 8.91386C2.19996 8.98212 2.46096 9.06242 2.94279 9.08451C3.46278 9.10659 3.61938 9.11262 4.93841 9.11262L5.08026 9.1126C6.26954 9.11229 6.4333 9.10771 6.93402 9.08451C7.41586 9.06242 7.67686 8.98212 7.85152 8.91386C8.0824 8.82351 8.24703 8.71711 8.41969 8.54445C8.59235 8.37179 8.69876 8.20716 8.7891 7.97628C8.85736 7.80161 8.93767 7.54062 8.95975 7.05878C8.98184 6.5388 8.98786 6.3822 8.98786 5.06317L8.98784 4.92131C8.98753 3.73203 8.98295 3.56828 8.95975 3.06755C8.93767 2.58571 8.85736 2.32472 8.7891 2.15005C8.69876 1.91917 8.59235 1.75454 8.41969 1.58188C8.24703 1.40922 8.0824 1.30282 7.85152 1.21247C7.67686 1.14421 7.41586 1.06391 6.93402 1.04182C6.41404 1.01773 6.25744 1.01371 4.93841 1.01371L5.08026 1.01373ZM4.93841 2.52749C6.33976 2.52749 7.47408 3.66383 7.47408 5.06317C7.47408 6.4625 6.33775 7.59884 4.93841 7.59884C3.53907 7.59884 2.40273 6.46451 2.40273 5.06317C2.40273 3.66182 3.53706 2.52749 4.93841 2.52749ZM4.93841 3.41688C4.02894 3.41688 3.29213 4.1537 3.29213 5.06317C3.29213 5.97264 4.02894 6.70945 4.93841 6.70945C5.84788 6.70945 6.58469 5.97264 6.58469 5.06317C6.58469 4.1537 5.84788 3.41688 4.93841 3.41688ZM7.57647 1.83485C7.90357 1.83485 8.16873 2.10001 8.16873 2.42711C8.16873 2.7542 7.90357 3.01937 7.57647 3.01937C7.24938 3.01937 6.98421 2.7542 6.98421 2.42711C6.98421 2.10001 7.24938 1.83485 7.57647 1.83485Z" fill="#A19F9D"/>
</svg>
