<svg width="12" height="13" viewBox="0 0 12 13" fill="none" xmlns="http://www.w3.org/2000/svg">
<path d="M11 8.70045V4.29955C10.9998 4.10661 10.9484 3.91712 10.8509 3.75008C10.7533 3.58303 10.6132 3.44432 10.4444 3.34785L6.55556 1.1474C6.38665 1.05084 6.19504 1 6 1C5.80496 1 5.61335 1.05084 5.44444 1.1474L1.55556 3.34785C1.38681 3.44432 1.24666 3.58303 1.14915 3.75008C1.05163 3.91712 1.0002 4.10661 1 4.29955V8.70045C1.0002 8.89339 1.05163 9.08288 1.14915 9.24992C1.24666 9.41696 1.38681 9.55568 1.55556 9.65215L5.44444 11.8526C5.61335 11.9492 5.80496 12 6 12C6.19504 12 6.38665 11.9492 6.55556 11.8526L10.4444 9.65215C10.6132 9.55568 10.7533 9.41696 10.8509 9.24992C10.9484 9.08288 10.9998 8.89339 11 8.70045Z" stroke="#0078D4" stroke-linecap="round" stroke-linejoin="round"/>
<path d="M1 4L6 7L11 4" stroke="#0078D4" stroke-linecap="round" stroke-linejoin="round"/>
<path d="M6 12V6" stroke="#0078D4" stroke-linecap="round" stroke-linejoin="round"/>
</svg>
