<svg width="13" height="15" viewBox="0 0 13 15" fill="none" xmlns="http://www.w3.org/2000/svg">
<path d="M8.54496 4.83216C9.53112 5.5365 10.7387 5.95095 12.0431 5.95095V3.97612C11.315 3.82111 10.6704 3.44083 10.1858 2.91188C9.35631 2.39451 8.75866 1.54099 8.58343 0.541992H6.7548V10.5627C6.75066 11.7309 5.80213 12.6768 4.63241 12.6768C3.94311 12.6768 3.33074 12.3484 2.94291 11.8396C2.25036 11.4903 1.77544 10.773 1.77544 9.94478C1.77544 8.77333 2.72554 7.82354 3.89778 7.82354C4.12238 7.82354 4.33885 7.85849 4.54191 7.92289V5.92647C2.02456 5.97846 0 8.0343 0 10.5627C0 11.8249 0.504162 12.9691 1.32242 13.8051C2.06061 14.3005 2.94925 14.5894 3.90533 14.5894C6.46774 14.5894 8.54502 12.5132 8.54502 9.95206V4.83216H8.54496Z" fill="black"/>
</svg>
