<svg width="11" height="12" viewBox="0 0 11 12" fill="none" xmlns="http://www.w3.org/2000/svg">
<path d="M7.55559 4.03094C8.32717 4.58221 9.2724 4.90657 10.2933 4.90657V2.94309C10.1001 2.94313 9.90737 2.92299 9.71835 2.88296V4.4285C8.69754 4.4285 7.75245 4.10415 6.98066 3.55292V7.55981C6.98066 9.56426 5.35491 11.1891 3.34955 11.1891C2.60131 11.1891 1.90585 10.963 1.32812 10.5752C1.9875 11.2491 2.90705 11.6671 3.92436 11.6671C5.92984 11.6671 7.55568 10.0423 7.55568 8.03775V4.03094H7.55559ZM8.26484 2.05003C7.87052 1.61946 7.61162 1.06302 7.55559 0.447858V0.195312H7.01076C7.14791 0.977186 7.61568 1.64517 8.26484 2.05003ZM2.59651 9.03707C2.3762 8.74835 2.25715 8.39516 2.25768 8.03201C2.25768 7.11525 3.00129 6.37193 3.9187 6.37193C4.08968 6.37189 4.25963 6.39805 4.42256 6.44973V4.44236C4.23215 4.41628 4.03997 4.40521 3.84788 4.40927V5.9717C3.68482 5.92003 3.51479 5.89378 3.34377 5.89395C2.42636 5.89395 1.68279 6.63719 1.68279 7.55407C1.68279 8.20237 2.05447 8.76365 2.59651 9.03707Z" fill="#A19F9D"/>
<path d="M6.98066 3.55288C7.75245 4.10411 8.69754 4.42846 9.71835 4.42846V2.88292C9.14854 2.76161 8.64411 2.464 8.26484 2.05003C7.61563 1.64513 7.1479 0.977145 7.01076 0.195312H5.57965V8.03767C5.57641 8.95193 4.83407 9.69222 3.91862 9.69222C3.37916 9.69222 2.89991 9.4352 2.59639 9.03707C2.05439 8.76365 1.6827 8.20233 1.6827 7.55411C1.6827 6.63731 2.42627 5.89399 3.34369 5.89399C3.51946 5.89399 3.68888 5.92134 3.8478 5.97174V4.40931C1.87767 4.44999 0.293213 6.05893 0.293213 8.03771C0.293213 9.0255 0.687779 9.92097 1.32817 10.5753C1.90589 10.963 2.60135 11.1891 3.34959 11.1891C5.35499 11.1891 6.9807 9.56422 6.9807 7.55981V3.55288H6.98066Z" fill="#A19F9D"/>
</svg>
