<svg width="11" height="11" viewBox="0 0 11 11" fill="none" xmlns="http://www.w3.org/2000/svg">
<path d="M5.12082 1.73293H1.73506C1.4785 1.73293 1.23245 1.83485 1.05103 2.01627C0.869618 2.19768 0.7677 2.44373 0.7677 2.70029V9.47182C0.7677 9.72838 0.869618 9.97443 1.05103 10.1558C1.23245 10.3373 1.4785 10.4392 1.73506 10.4392H8.50658C8.76314 10.4392 9.00919 10.3373 9.19061 10.1558C9.37203 9.97443 9.47394 9.72838 9.47394 9.47182V6.08605" stroke="black" stroke-linecap="round" stroke-linejoin="round"/>
<path d="M8.74844 1.00741C8.94086 0.814994 9.20184 0.706894 9.47396 0.706894C9.74609 0.706894 10.0071 0.814994 10.1995 1.00741C10.3919 1.19983 10.5 1.46081 10.5 1.73293C10.5 2.00506 10.3919 2.26603 10.1995 2.45845L5.60452 7.05342L3.6698 7.5371L4.15348 5.60238L8.74844 1.00741Z" stroke="black" stroke-linecap="round" stroke-linejoin="round"/>
</svg>
