<svg width="11" height="10" viewBox="0 0 11 10" fill="none" xmlns="http://www.w3.org/2000/svg">
<path d="M1.28076 7.97816V5.07608C1.28076 3.92156 1.73939 2.81433 2.55576 1.99796C3.37213 1.18159 4.47936 0.722961 5.63388 0.722961C6.7884 0.722961 7.89564 1.18159 8.712 1.99796C9.52837 2.81433 9.98701 3.92156 9.98701 5.07608V7.97816" stroke="black" stroke-linecap="round" stroke-linejoin="round"/>
<path d="M9.98701 8.46184C9.98701 8.7184 9.88509 8.96445 9.70367 9.14587C9.52226 9.32729 9.2762 9.4292 9.01964 9.4292H8.53596C8.2794 9.4292 8.03335 9.32729 7.85194 9.14587C7.67052 8.96445 7.5686 8.7184 7.5686 8.46184V7.0108C7.5686 6.75424 7.67052 6.50819 7.85194 6.32678C8.03335 6.14536 8.2794 6.04344 8.53596 6.04344H9.98701V8.46184ZM1.28076 8.46184C1.28076 8.7184 1.38268 8.96445 1.56409 9.14587C1.74551 9.32729 1.99156 9.4292 2.24812 9.4292H2.7318C2.98836 9.4292 3.23441 9.32729 3.41583 9.14587C3.59724 8.96445 3.69916 8.7184 3.69916 8.46184V7.0108C3.69916 6.75424 3.59724 6.50819 3.41583 6.32678C3.23441 6.14536 2.98836 6.04344 2.7318 6.04344H1.28076V8.46184Z" stroke="black" stroke-linecap="round" stroke-linejoin="round"/>
</svg>
