<svg width="26" height="19" viewBox="0 0 26 19" fill="none" xmlns="http://www.w3.org/2000/svg">
<path d="M13.4565 6.26928e-05C15.2006 0.00980367 21.4292 0.0779904 23.1732 0.5553C24.2869 0.855148 25.165 1.73328 25.4649 2.847C25.9422 4.59101 25.9947 7.95578 26 8.88155L25.9996 9.27816C25.9935 10.0583 25.9392 13.5742 25.4649 15.3764C25.165 16.4901 24.2869 17.3682 23.1732 17.6681C21.2215 18.1817 13.654 18.2026 13.0395 18.2035H12.9602C12.3472 18.2026 4.79852 18.1808 2.82634 17.6467C1.71261 17.3468 0.834492 16.4687 0.534644 15.355C0.0603939 13.5718 0.00619456 10.0412 0 9.25749V8.94521C0.00619456 8.1651 0.0603939 4.64915 0.534644 2.847C0.834492 1.73328 1.73403 0.83373 2.82634 0.533882C4.57035 0.0749306 10.799 0.00936637 12.543 0L13.4565 6.26928e-05ZM10.4082 5.20295V12.999L17.1762 9.10097L10.4082 5.20295Z" fill="#323130"/>
</svg>
